<svg xmlns="http://www.w3.org/2000/svg" viewBox="0 0 140 140" role="img" aria-label="Herc, o leão do Hércules">
  <!-- Medalhão de cerâmica: breu, linho e barro -->
  <circle cx="70" cy="70" r="66" fill="#241C14"/>
  <circle cx="70" cy="70" r="58" fill="#F6E8CE"/>
  <circle cx="70" cy="70" r="52" fill="#C96F3B"/>
  <!-- Juba de sol -->
  <g fill="#241C14">
    <circle cx="70" cy="30" r="9"/>
    <circle cx="70" cy="30" r="9" transform="rotate(30 70 70)"/>
    <circle cx="70" cy="30" r="9" transform="rotate(60 70 70)"/>
    <circle cx="70" cy="30" r="9" transform="rotate(90 70 70)"/>
    <circle cx="70" cy="30" r="9" transform="rotate(120 70 70)"/>
    <circle cx="70" cy="30" r="9" transform="rotate(150 70 70)"/>
    <circle cx="70" cy="30" r="9" transform="rotate(180 70 70)"/>
    <circle cx="70" cy="30" r="9" transform="rotate(210 70 70)"/>
    <circle cx="70" cy="30" r="9" transform="rotate(240 70 70)"/>
    <circle cx="70" cy="30" r="9" transform="rotate(270 70 70)"/>
    <circle cx="70" cy="30" r="9" transform="rotate(300 70 70)"/>
    <circle cx="70" cy="30" r="9" transform="rotate(330 70 70)"/>
  </g>
  <circle cx="70" cy="70" r="36" fill="#241C14"/>
  <!-- Rosto -->
  <circle cx="70" cy="72" r="28" fill="#C96F3B"/>
  <circle cx="61" cy="66" r="3.6" fill="#241C14"/>
  <circle cx="79" cy="66" r="3.6" fill="#241C14"/>
  <path d="M70 73 l-5.5 6.5 h11 z" fill="#241C14"/>
  <path d="M70 79.5 q0 6 -7 7.5 M70 79.5 q0 6 7 7.5" stroke="#241C14" stroke-width="2.6" fill="none" stroke-linecap="round"/>
</svg>
